<svg width="52" height="52" viewBox="0 0 52 52" fill="none" xmlns="http://www.w3.org/2000/svg">
<path d="M15.696 23.7063V20.2807C15.696 20.0779 15.696 19.9968 15.9607 19.9968C18.2295 19.9968 20.0736 19.8623 20.9892 20.4023C21.907 20.9402 21.9454 21.6829 21.9604 21.9049C21.9774 22.1269 21.9689 22.4449 21.542 23.2197C21.1152 23.9944 19.2049 24.0094 17.8261 24.0094H16.0013C15.7772 24.0094 15.696 23.9283 15.696 23.7063ZM21.9839 27.2963C22.1949 27.5663 22.3455 27.8784 22.4255 28.2116C22.5054 28.5448 22.5128 28.8913 22.4473 29.2277C22.3817 29.564 22.2447 29.8824 22.0454 30.1611C21.8461 30.4399 21.5893 30.6727 21.2923 30.8436C20.8555 31.0268 20.3872 31.1232 19.9135 31.1275H15.9799C15.7772 31.1275 15.696 31.1275 15.696 30.8649V26.8097C15.696 26.6069 15.696 26.5258 15.9607 26.5258H18.5753C20.1974 26.5258 21.2112 26.3849 21.9839 27.2963Z" fill="url(#paint0_linear_4002_876)"/>
<path d="M36.2605 25.4181C36.1519 25.1616 35.9869 24.9328 35.7777 24.7488C35.5686 24.5648 35.3207 24.4302 35.0524 24.3552C34.5163 24.209 33.9553 24.1781 33.4064 24.2645C32.8575 24.351 32.3332 24.5528 31.868 24.8567C31.404 25.3247 31.1044 25.9306 31.0142 26.5834C31.0142 26.8118 31.0142 26.8545 31.2853 26.8545H36.3437C36.5934 26.8545 36.5934 26.8545 36.5721 26.5407C36.5477 26.1486 36.4429 25.766 36.2605 25.4181ZM36.2605 25.4181C36.1519 25.1616 35.9847 24.9328 35.7756 24.7488C35.5664 24.5648 35.3207 24.4302 35.0524 24.3552C34.5163 24.209 33.9532 24.1781 33.4043 24.2645C32.8554 24.351 32.3332 24.5528 31.868 24.8567C31.404 25.3247 31.1022 25.9306 31.0121 26.5834C31.0121 26.8118 31.0121 26.8545 31.2832 26.8545H36.3437C36.5934 26.8545 36.5934 26.8545 36.5721 26.5407C36.5477 26.1486 36.4387 25.766 36.2562 25.4181M38.6317 5.33594H13.6598C11.4521 5.33594 9.3349 6.21293 7.77385 7.77397C6.2128 9.33502 5.33582 11.4523 5.33582 13.6599V38.6319C5.33582 40.8395 6.2128 42.9568 7.77385 44.5178C9.3349 46.0789 11.4521 46.9558 13.6598 46.9558H38.6317C40.8394 46.9558 42.9566 46.0789 44.5177 44.5178C46.0787 42.9568 46.9557 40.8395 46.9557 38.6319V13.6599C46.9557 11.4523 46.0787 9.33502 44.5177 7.77397C42.9566 6.21293 40.8394 5.33594 38.6317 5.33594ZM30.4742 18.5903C30.4742 18.4259 30.4742 18.3619 30.6621 18.3619H37.4045V20.1121C37.4045 20.1121 37.4109 20.2359 37.2999 20.2359H30.7666C30.4742 20.2359 30.4742 20.2359 30.4742 19.9456V18.5903ZM24.2313 33.8872C21.67 35.2809 17.365 34.7196 12.2661 34.7196V17.4676H20.4022C22.4832 17.4676 24.9591 17.9884 25.625 20.1932C25.9708 21.1562 25.9497 22.2128 25.5659 23.1612C25.182 24.1096 24.4622 24.8834 23.544 25.3348C24.3904 25.648 25.1293 26.1972 25.6733 26.9172C26.2174 27.6373 26.5437 28.4982 26.6138 29.3979C26.6839 30.2977 26.4947 31.1987 26.0687 31.9943C25.6426 32.7899 24.9976 33.4467 24.2099 33.8872H24.2313ZM39.7352 28.976H31.4112C31.1828 28.976 30.9737 29.0998 31.0142 29.3922C31.264 30.6195 31.8253 31.9108 33.0974 32.0986C33.7691 32.2974 34.488 32.2661 35.1399 32.0097C35.7918 31.7533 36.3395 31.2866 36.6959 30.6835C36.6959 30.6835 36.8005 30.5576 36.8624 30.5576H39.5687C39.5687 30.5576 39.7352 30.5576 39.6925 30.7027C39.4091 31.5118 38.9865 32.2652 38.4439 32.9289C37.7204 33.6194 36.8476 34.134 35.8931 34.4327C34.9386 34.7314 33.9281 34.8063 32.9401 34.6515C31.952 34.4967 31.0128 34.1164 30.1954 33.54C29.3781 32.9637 28.7044 32.2068 28.2268 31.3281C27.9316 30.7426 27.7484 30.107 27.6868 29.4541C27.3156 27.8141 27.5993 26.0939 28.4775 24.6599C29.3558 23.226 30.7591 22.1915 32.3888 21.7769C37.1121 20.7566 40.1087 24.003 40.1087 28.5812C40.1157 28.6347 40.1103 28.6891 40.0929 28.7402C40.0756 28.7913 40.0467 28.8377 40.0085 28.8759C39.9704 28.914 39.924 28.9429 39.8729 28.9603C39.8218 28.9776 39.7674 28.983 39.7139 28.976H39.7352ZM35.0738 24.3552C34.5377 24.2094 33.9769 24.1789 33.4282 24.2655C32.8797 24.3509 32.3888 24.4555 31.8893 24.8567C31.3899 25.2559 31.1252 25.9303 31.0356 26.5834C31.0356 26.8118 31.0356 26.8545 31.3066 26.8545H36.3437C36.5934 26.8545 36.5934 26.8545 36.5721 26.5407C36.5477 26.1486 36.4429 25.766 36.2605 25.4181C36.1519 25.1616 35.9869 24.9328 35.7777 24.7488C35.5686 24.5648 35.3207 24.4302 35.0524 24.3552H35.0738Z" fill="url(#paint1_linear_4002_876)"/>
<defs>
<linearGradient id="paint0_linear_4002_876" x1="19.0938" y1="19.9819" x2="19.0938" y2="31.1275" gradientUnits="userSpaceOnUse">
<stop stop-color="#F8F8F8" stop-opacity="0.9"/>
<stop offset="1" stop-color="#F8F8F8" stop-opacity="0.3"/>
</linearGradient>
<linearGradient id="paint1_linear_4002_876" x1="26.1458" y1="5.33594" x2="26.1458" y2="46.9558" gradientUnits="userSpaceOnUse">
<stop stop-color="#F8F8F8" stop-opacity="0.9"/>
<stop offset="1" stop-color="#F8F8F8" stop-opacity="0.3"/>
</linearGradient>
</defs>
</svg>
