<svg width="40" height="40" viewBox="0 0 40 40" fill="none" xmlns="http://www.w3.org/2000/svg">
<path d="M17.8011 3.50879V7.90645H12.304C9.87529 7.90645 7.90639 9.87535 7.90639 12.3041V17.8012H3.50873V12.3041C3.50873 7.44659 7.44653 3.50879 12.304 3.50879H17.8011Z" fill="url(#paint0_linear_4002_1115)"/>
<path d="M22.1988 3.50879V7.90645H27.6959C30.1246 7.90645 32.0935 9.87535 32.0935 12.3041V17.8012H36.4912V12.3041C36.4912 7.44659 32.5534 3.50879 27.6959 3.50879H22.1988Z" fill="url(#paint1_linear_4002_1115)"/>
<path d="M36.4912 22.1988H32.0935V27.6959C32.0935 30.1247 30.1246 32.0936 27.6959 32.0936H22.1988V36.4912H27.6959C32.5534 36.4912 36.4912 32.5534 36.4912 27.6959V22.1988Z" fill="url(#paint2_linear_4002_1115)"/>
<path d="M17.8011 36.4912V32.0936H12.304C9.87529 32.0936 7.90639 30.1247 7.90639 27.6959V22.1988H3.50873V27.6959C3.50873 32.5534 7.44653 36.4912 12.304 36.4912H17.8011Z" fill="url(#paint3_linear_4002_1115)"/>
<defs>
<linearGradient id="paint0_linear_4002_1115" x1="20" y1="3.50879" x2="20" y2="36.4912" gradientUnits="userSpaceOnUse">
<stop stop-color="#F8F8F8" stop-opacity="0.9"/>
<stop offset="1" stop-color="#F8F8F8" stop-opacity="0.3"/>
</linearGradient>
<linearGradient id="paint1_linear_4002_1115" x1="20" y1="3.50879" x2="20" y2="36.4912" gradientUnits="userSpaceOnUse">
<stop stop-color="#F8F8F8" stop-opacity="0.9"/>
<stop offset="1" stop-color="#F8F8F8" stop-opacity="0.3"/>
</linearGradient>
<linearGradient id="paint2_linear_4002_1115" x1="20" y1="3.50879" x2="20" y2="36.4912" gradientUnits="userSpaceOnUse">
<stop stop-color="#F8F8F8" stop-opacity="0.9"/>
<stop offset="1" stop-color="#F8F8F8" stop-opacity="0.3"/>
</linearGradient>
<linearGradient id="paint3_linear_4002_1115" x1="20" y1="3.50879" x2="20" y2="36.4912" gradientUnits="userSpaceOnUse">
<stop stop-color="#F8F8F8" stop-opacity="0.9"/>
<stop offset="1" stop-color="#F8F8F8" stop-opacity="0.3"/>
</linearGradient>
</defs>
</svg>
