<svg width="1440" height="365" viewBox="0 0 1440 365" fill="none" xmlns="http://www.w3.org/2000/svg">
<path d="M160.46 31.979V72.059H110.36C88.2242 72.059 70.2798 90.0034 70.2798 112.139V162.239H30.1998V112.139C30.1998 67.8678 66.0886 31.979 110.36 31.979H160.46Z" fill="url(#paint0_linear_4002_26)"/>
<path d="M200.54 31.979V72.059H250.64C272.775 72.059 290.719 90.0034 290.719 112.139V162.239H330.799V112.139C330.799 67.8678 294.911 31.979 250.64 31.979H200.54Z" fill="url(#paint1_linear_4002_26)"/>
<path d="M330.799 202.319H290.719V252.419C290.719 274.554 272.775 292.499 250.64 292.499H200.54V332.579H250.64C294.911 332.579 330.799 296.69 330.799 252.419V202.319Z" fill="url(#paint2_linear_4002_26)"/>
<path d="M160.46 332.579V292.499H110.36C88.2242 292.499 70.2798 274.554 70.2798 252.419V202.319H30.1998V252.419C30.1998 296.69 66.0886 332.579 110.36 332.579H160.46Z" fill="url(#paint3_linear_4002_26)"/>
<path d="M500.397 276.555C451.588 276.555 411.109 236.397 411.109 187.801C411.109 139.312 451.588 98.6201 499.97 98.6201C522.292 98.9405 542.905 108.446 559.78 124.894L544.08 146.148C532.011 134.079 516.311 126.069 499.436 126.069C468.249 126.069 438.451 153.41 438.451 187.908C438.451 222.619 468.677 249.427 499.543 249.427C517.165 249.427 532.332 240.669 544.187 228.921L559.78 250.709C544.934 265.341 526.03 276.555 500.397 276.555ZM701.402 273.778L689.654 247.611H608.162L596.414 273.778H567.15L648.107 98.0861H649.709L730.666 273.778H701.402ZM618.629 224.435H679.187L648.961 157.149L618.629 224.435ZM861.074 101.183H888.202V276.769H886.92L776.805 161.741V273.992H749.784V98.6201H751.173L861.074 213.434V101.183ZM1084.08 179.791C1084.51 183.743 1084.83 188.442 1084.83 193.248C1084.83 244.407 1047.66 276.662 1002.91 276.662C952.818 276.662 913.087 236.717 913.087 187.908C913.087 138.992 953.032 98.7269 1001.95 98.7269C1023.63 98.8337 1048.41 109.3 1064.64 125.107L1049.58 147.536C1036.13 134.293 1017.97 125.962 1001.63 125.962C970.227 125.962 940.536 152.236 940.536 187.908C940.536 221.658 967.343 249.427 1004.08 249.427C1033.67 249.427 1055.88 231.377 1055.88 205.103V204.569H1002.59V179.791H1084.08ZM1272.48 179.791C1272.91 183.743 1273.23 188.442 1273.23 193.248C1273.23 244.407 1236.06 276.662 1191.31 276.662C1141.22 276.662 1101.49 236.717 1101.49 187.908C1101.49 138.992 1141.43 98.7269 1190.35 98.7269C1212.03 98.8337 1236.81 109.3 1253.04 125.107L1237.98 147.536C1224.53 134.293 1206.37 125.962 1190.03 125.962C1158.63 125.962 1128.94 152.236 1128.94 187.908C1128.94 221.658 1155.75 249.427 1192.49 249.427C1222.07 249.427 1244.29 231.377 1244.29 205.103V204.569H1190.99V179.791H1272.48ZM1361.56 276.982C1324.92 276.982 1296.51 248.039 1296.51 208.521V101.611H1323.64V208.414C1323.64 232.232 1340.41 249.641 1361.45 249.641C1382.49 249.641 1399.47 232.232 1399.47 208.414V101.611H1426.71V208.521C1426.71 248.039 1398.19 276.982 1361.56 276.982Z" fill="url(#paint4_linear_4002_26)"/>
<defs>
<linearGradient id="paint0_linear_4002_26" x1="180.5" y1="31.979" x2="180.5" y2="332.579" gradientUnits="userSpaceOnUse">
<stop stop-color="#F8F8F8" stop-opacity="0.9"/>
<stop offset="1" stop-color="#F8F8F8" stop-opacity="0.3"/>
</linearGradient>
<linearGradient id="paint1_linear_4002_26" x1="180.5" y1="31.979" x2="180.5" y2="332.579" gradientUnits="userSpaceOnUse">
<stop stop-color="#F8F8F8" stop-opacity="0.9"/>
<stop offset="1" stop-color="#F8F8F8" stop-opacity="0.3"/>
</linearGradient>
<linearGradient id="paint2_linear_4002_26" x1="180.5" y1="31.979" x2="180.5" y2="332.579" gradientUnits="userSpaceOnUse">
<stop stop-color="#F8F8F8" stop-opacity="0.9"/>
<stop offset="1" stop-color="#F8F8F8" stop-opacity="0.3"/>
</linearGradient>
<linearGradient id="paint3_linear_4002_26" x1="180.5" y1="31.979" x2="180.5" y2="332.579" gradientUnits="userSpaceOnUse">
<stop stop-color="#F8F8F8" stop-opacity="0.9"/>
<stop offset="1" stop-color="#F8F8F8" stop-opacity="0.3"/>
</linearGradient>
<linearGradient id="paint4_linear_4002_26" x1="922.279" y1="72.7783" x2="922.279" y2="291.778" gradientUnits="userSpaceOnUse">
<stop stop-color="#F8F8F8" stop-opacity="0.9"/>
<stop offset="1" stop-color="#F8F8F8" stop-opacity="0.3"/>
</linearGradient>
</defs>
</svg>
