<svg width="112" height="20" viewBox="0 0 112 20" fill="none" xmlns="http://www.w3.org/2000/svg">
<path d="M9.79688 19.582C4.44141 19.582 0 15.1758 0 9.84375C0 4.52344 4.44141 0.0585938 9.75 0.0585938C12.1992 0.09375 14.4609 1.13672 16.3125 2.94141L14.5898 5.27344C13.2656 3.94922 11.543 3.07031 9.69141 3.07031C6.26953 3.07031 3 6.07031 3 9.85547C3 13.6641 6.31641 16.6055 9.70312 16.6055C11.6367 16.6055 13.3008 15.6445 14.6016 14.3555L16.3125 16.7461C14.6836 18.3516 12.6094 19.582 9.79688 19.582ZM31.8516 19.2773L30.5625 16.4062H21.6211L20.332 19.2773H17.1211L26.0039 0H26.1797L35.0625 19.2773H31.8516ZM22.7695 13.8633H29.4141L26.0977 6.48047L22.7695 13.8633ZM49.3711 0.339844H52.3477V19.6055H52.207L40.125 6.98438V19.3008H37.1602V0.0585938H37.3125L49.3711 12.6562V0.339844ZM73.8398 8.96484C73.8867 9.39844 73.9219 9.91406 73.9219 10.4414C73.9219 16.0547 69.8438 19.5938 64.9336 19.5938C59.4375 19.5938 55.0781 15.2109 55.0781 9.85547C55.0781 4.48828 59.4609 0.0703125 64.8281 0.0703125C67.207 0.0820312 69.9258 1.23047 71.707 2.96484L70.0547 5.42578C68.5781 3.97266 66.5859 3.05859 64.793 3.05859C61.3477 3.05859 58.0898 5.94141 58.0898 9.85547C58.0898 13.5586 61.0312 16.6055 65.0625 16.6055C68.3086 16.6055 70.7461 14.625 70.7461 11.7422V11.6836H64.8984V8.96484H73.8398ZM94.5117 8.96484C94.5586 9.39844 94.5938 9.91406 94.5938 10.4414C94.5938 16.0547 90.5156 19.5938 85.6055 19.5938C80.1094 19.5938 75.75 15.2109 75.75 9.85547C75.75 4.48828 80.1328 0.0703125 85.5 0.0703125C87.8789 0.0820312 90.5977 1.23047 92.3789 2.96484L90.7266 5.42578C89.25 3.97266 87.2578 3.05859 85.4648 3.05859C82.0195 3.05859 78.7617 5.94141 78.7617 9.85547C78.7617 13.5586 81.7031 16.6055 85.7344 16.6055C88.9805 16.6055 91.418 14.625 91.418 11.7422V11.6836H85.5703V8.96484H94.5117ZM104.285 19.6289C100.266 19.6289 97.1484 16.4531 97.1484 12.1172V0.386719H100.125V12.1055C100.125 14.7188 101.965 16.6289 104.273 16.6289C106.582 16.6289 108.445 14.7188 108.445 12.1055V0.386719H111.434V12.1172C111.434 16.4531 108.305 19.6289 104.285 19.6289Z" fill="url(#paint0_linear_4002_1117)"/>
<defs>
<linearGradient id="paint0_linear_4002_1117" x1="56.0859" y1="-2.72266" x2="56.0859" y2="21.2773" gradientUnits="userSpaceOnUse">
<stop stop-color="#F8F8F8" stop-opacity="0.9"/>
<stop offset="1" stop-color="#F8F8F8" stop-opacity="0.3"/>
</linearGradient>
</defs>
</svg>
