<svg width="84" height="40" viewBox="0 0 84 40" fill="none" xmlns="http://www.w3.org/2000/svg">
<g clip-path="url(#clip0_4002_1239)">
<path fill-rule="evenodd" clip-rule="evenodd" d="M57.4502 2.66219C57.4502 1.30668 58.5582 0.207825 59.9251 0.207825H64.2366C65.2095 0.207825 66.1523 0.542165 66.9045 1.15393L68.2161 2.22055L68.2489 2.25022C68.2792 2.24009 68.3094 2.2302 68.3398 2.22055C70.706 1.46895 73.5769 1.32601 76.5071 1.32601C79.4372 1.32601 82.3081 1.46895 84.6743 2.22055C84.7047 2.2302 84.735 2.24009 84.7652 2.25022L84.798 2.22055L86.1096 1.15393C86.8618 0.542165 87.8047 0.207825 88.7775 0.207825H93.089C94.4559 0.207825 95.5639 1.30668 95.5639 2.66219V4.17944C95.5639 5.35334 95.0653 6.47294 94.1903 7.26357L93.1322 8.21966C92.6157 8.68641 91.9957 9.0261 91.3223 9.21129L91.072 9.28013C92.0524 11.6001 92.5941 14.0799 92.5941 16.0859C92.5941 24.1556 87.5592 27.6407 83.123 30.7116C79.6294 33.1299 76.5071 35.2912 76.5071 39.2323C76.5071 35.2912 73.3847 33.1299 69.8911 30.7116C65.4549 27.6407 60.4201 24.1556 60.4201 16.0859C60.4201 14.0799 60.9617 11.6001 61.9421 9.28013L61.6918 9.21129C61.0184 9.0261 60.3984 8.68641 59.8819 8.21966L58.8238 7.26357C57.9488 6.47294 57.4502 5.35334 57.4502 4.17944V2.66219ZM79.7245 22.6832C79.7245 23.0687 79.555 23.4384 79.2533 23.7111C78.9516 23.9837 78.5424 24.1368 78.1157 24.1368C77.7474 24.1368 77.392 24.0226 77.1077 23.816C77.5917 25.1008 78.8304 26.3183 80.7144 24.3604C82.3777 22.5412 80.6405 18.7043 78.948 16.4274C78.3839 15.6684 77.4578 15.3032 76.5071 15.3032C75.5563 15.3032 74.6302 15.6684 74.0661 16.4274C72.3736 18.7043 70.6364 22.5412 72.2997 24.3604C74.1837 26.3183 75.4224 25.1008 75.9065 23.816C75.6221 24.0226 75.2667 24.1368 74.8984 24.1368C74.4717 24.1368 74.0625 23.9837 73.7608 23.7111C73.4592 23.4384 73.2896 23.0687 73.2896 22.6832H79.7245ZM70.3465 11.325H65.8649L69.3969 14.1296C70.1741 14.7467 71.3101 14.5494 71.791 13.7138C72.3983 12.6588 71.5917 11.325 70.3465 11.325ZM82.6676 11.325H87.1492L83.6172 14.1296C82.84 14.7467 81.704 14.5494 81.2231 13.7138C80.6159 12.6588 81.4224 11.325 82.6676 11.325Z" fill="#DBDBDB"/>
<path d="M0.665283 27.8501H4.6356V6.92322H0.665283V27.8501Z" fill="#DBDBDB"/>
<path d="M14.3449 28.2891C18.9867 28.2891 22.1688 24.8354 22.1688 20.3574C22.1688 15.8793 18.9867 12.4257 14.3449 12.4257C9.70309 12.4257 6.521 15.8793 6.521 20.3574C6.521 24.8354 9.70309 28.2891 14.3449 28.2891ZM14.3449 25.2452C11.8927 25.2452 10.5498 23.2842 10.5498 20.3574C10.5498 17.4305 11.8927 15.4403 14.3449 15.4403C16.768 15.4403 18.1401 17.4305 18.1401 20.3574C18.1401 23.2842 16.768 25.2452 14.3449 25.2452Z" fill="#DBDBDB"/>
<path d="M30.612 32.972C32.8307 32.972 34.7575 32.4452 36.0128 31.2744C37.1222 30.25 37.7936 28.8159 37.7936 26.7086V12.8354H33.9693V14.4159H33.9109C33.0059 13.1574 31.6338 12.4257 29.7654 12.4257C25.9702 12.4257 23.2844 15.294 23.2844 19.772C23.2844 24.3086 26.5541 26.9427 29.8822 26.9427C31.7797 26.9427 32.9183 26.1818 33.7941 25.1866H33.8817V26.8257C33.8817 28.8744 32.8015 29.9574 30.5536 29.9574C28.7144 29.9574 27.8678 29.2257 27.5467 28.2891H23.6056C24.0143 31.2159 26.5249 32.972 30.612 32.972ZM30.5536 23.7525C28.5101 23.7525 27.1672 22.2598 27.1672 19.7135C27.1672 17.1964 28.5101 15.6159 30.5244 15.6159C32.9183 15.6159 34.086 17.4891 34.086 19.6842C34.086 21.9086 33.0643 23.7525 30.5536 23.7525Z" fill="#DBDBDB"/>
<path d="M47.4442 28.2891C52.086 28.2891 55.2681 24.8354 55.2681 20.3574C55.2681 15.8793 52.086 12.4257 47.4442 12.4257C42.8025 12.4257 39.6204 15.8793 39.6204 20.3574C39.6204 24.8354 42.8025 28.2891 47.4442 28.2891ZM47.4442 25.2452C44.992 25.2452 43.6491 23.2842 43.6491 20.3574C43.6491 17.4305 44.992 15.4403 47.4442 15.4403C49.8673 15.4403 51.2394 17.4305 51.2394 20.3574C51.2394 23.2842 49.8673 25.2452 47.4442 25.2452Z" fill="#DBDBDB"/>
</g>
<defs>
<clipPath id="clip0_4002_1239">
<rect width="181" height="40" fill="white"/>
</clipPath>
</defs>
</svg>
