<svg width="52" height="52" viewBox="0 0 52 52" fill="none" xmlns="http://www.w3.org/2000/svg">
<path d="M25.6121 46.9559C37.4001 46.9559 46.9556 37.4004 46.9556 25.6123C46.9556 13.8243 37.4001 4.2688 25.6121 4.2688C13.8241 4.2688 4.26855 13.8243 4.26855 25.6123C4.26855 34.1626 9.29709 41.5389 16.5582 44.9453L21.4458 21.9669C21.5711 21.4208 21.9059 20.9459 22.3782 20.6446C22.8505 20.3433 23.4222 20.2398 23.9702 20.3563C24.5181 20.4728 24.9983 20.8001 25.3071 21.2675C25.6158 21.735 25.7285 22.305 25.6206 22.8548C25.0358 25.6123 24.5236 26.6795 24.5471 27.9601C24.5833 29.9664 25.1297 31.0379 25.6591 31.5928C26.199 32.1584 26.9781 32.4636 27.9962 32.4465C29.0356 32.4252 30.2116 32.0602 31.2532 31.4028C33.2787 30.1308 34.1495 27.9495 34.1495 25.6123C34.1481 24.344 33.8641 23.092 33.3182 21.9472C32.7723 20.8023 31.9782 19.7935 30.9936 18.9941C30.0089 18.1946 28.8586 17.6246 27.626 17.3254C26.3935 17.0262 25.1098 17.0054 23.8682 17.2644C22.6267 17.5235 21.4584 18.0559 20.4484 18.8231C19.4384 19.5902 18.612 20.5727 18.0292 21.6992C17.4465 22.8257 17.122 24.0679 17.0795 25.3355C17.037 26.6031 17.2774 27.8643 17.7833 29.0273C17.9896 29.5422 17.9872 30.1173 17.7768 30.6305C17.5664 31.1438 17.1645 31.555 16.6561 31.7769C16.1478 31.9989 15.573 32.0143 15.0535 31.8198C14.534 31.6252 14.1107 31.2361 13.8731 30.7348C13.0235 28.786 12.6724 26.6563 12.8515 24.5379C13.0306 22.4195 13.7343 20.379 14.8991 18.6006C16.0638 16.8221 17.653 15.3615 19.5233 14.3507C21.3936 13.3399 23.4861 12.8107 25.6121 12.8107C27.7381 12.8107 29.8306 13.3399 31.7009 14.3507C33.5711 15.3615 35.1604 16.8221 36.3251 18.6006C37.4899 20.379 38.1936 22.4195 38.3727 24.5379C38.5518 26.6563 38.2007 28.786 37.351 30.7348C36.5656 32.5447 35.1313 34.0089 33.5263 35.0184C31.9148 36.0323 29.9897 36.6811 28.073 36.7153C26.325 36.7473 24.5044 36.2628 23.0381 34.9907L20.6177 46.3711C22.2185 46.7553 23.8918 46.958 25.61 46.958L25.6121 46.9559Z" fill="url(#paint0_linear_4002_894)"/>
<defs>
<linearGradient id="paint0_linear_4002_894" x1="25.6121" y1="4.2688" x2="25.6121" y2="46.958" gradientUnits="userSpaceOnUse">
<stop stop-color="#F8F8F8" stop-opacity="0.9"/>
<stop offset="1" stop-color="#F8F8F8" stop-opacity="0.3"/>
</linearGradient>
</defs>
</svg>
