<svg width="55" height="55" viewBox="0 0 55 55" fill="none" xmlns="http://www.w3.org/2000/svg">
<path d="M13.6611 34.1529C13.6611 35.3606 13.1814 36.5189 12.3274 37.3728C11.4734 38.2268 10.3152 38.7066 9.10743 38.7066C7.89971 38.7066 6.74145 38.2268 5.88746 37.3728C5.03348 36.5189 4.55371 35.3606 4.55371 34.1529C4.55371 32.9452 5.03348 31.7869 5.88746 30.9329C6.74145 30.0789 7.89971 29.5992 9.10743 29.5992H13.6611V34.1529ZM15.938 34.1529C15.938 32.9452 16.4178 31.7869 17.2718 30.9329C18.1257 30.0789 19.284 29.5992 20.4917 29.5992C21.6994 29.5992 22.8577 30.0789 23.7117 30.9329C24.5657 31.7869 25.0454 32.9452 25.0454 34.1529V45.5372C25.0454 46.7449 24.5657 47.9032 23.7117 48.7571C22.8577 49.6111 21.6994 50.0909 20.4917 50.0909C19.284 50.0909 18.1257 49.6111 17.2718 48.7571C16.4178 47.9032 15.938 46.7449 15.938 45.5372V34.1529ZM20.4917 15.938C19.284 15.938 18.1257 15.4582 17.2718 14.6043C16.4178 13.7503 15.938 12.592 15.938 11.3843C15.938 10.1766 16.4178 9.01831 17.2718 8.16432C18.1257 7.31033 19.284 6.83057 20.4917 6.83057C21.6994 6.83057 22.8577 7.31033 23.7117 8.16432C24.5657 9.01831 25.0454 10.1766 25.0454 11.3843V15.938H20.4917ZM20.4917 18.2149C21.6994 18.2149 22.8577 18.6946 23.7117 19.5486C24.5657 20.4026 25.0454 21.5609 25.0454 22.7686C25.0454 23.9763 24.5657 25.1346 23.7117 25.9885C22.8577 26.8425 21.6994 27.3223 20.4917 27.3223H9.10743C7.89971 27.3223 6.74145 26.8425 5.88746 25.9885C5.03348 25.1346 4.55371 23.9763 4.55371 22.7686C4.55371 21.5609 5.03348 20.4026 5.88746 19.5486C6.74145 18.6946 7.89971 18.2149 9.10743 18.2149H20.4917ZM38.7066 22.7686C38.7066 21.5609 39.1864 20.4026 40.0404 19.5486C40.8943 18.6946 42.0526 18.2149 43.2603 18.2149C44.468 18.2149 45.6263 18.6946 46.4803 19.5486C47.3343 20.4026 47.814 21.5609 47.814 22.7686C47.814 23.9763 47.3343 25.1346 46.4803 25.9885C45.6263 26.8425 44.468 27.3223 43.2603 27.3223H38.7066V22.7686ZM36.4297 22.7686C36.4297 23.9763 35.95 25.1346 35.096 25.9885C34.242 26.8425 33.0837 27.3223 31.876 27.3223C30.6683 27.3223 29.51 26.8425 28.6561 25.9885C27.8021 25.1346 27.3223 23.9763 27.3223 22.7686V11.3843C27.3223 10.1766 27.8021 9.01831 28.6561 8.16432C29.51 7.31033 30.6683 6.83057 31.876 6.83057C33.0837 6.83057 34.242 7.31033 35.096 8.16432C35.95 9.01831 36.4297 10.1766 36.4297 11.3843V22.7686ZM31.876 40.9835C33.0837 40.9835 34.242 41.4632 35.096 42.3172C35.95 43.1712 36.4297 44.3295 36.4297 45.5372C36.4297 46.7449 35.95 47.9032 35.096 48.7571C34.242 49.6111 33.0837 50.0909 31.876 50.0909C30.6683 50.0909 29.51 49.6111 28.6561 48.7571C27.8021 47.9032 27.3223 46.7449 27.3223 45.5372V40.9835H31.876ZM31.876 38.7066C30.6683 38.7066 29.51 38.2268 28.6561 37.3728C27.8021 36.5189 27.3223 35.3606 27.3223 34.1529C27.3223 32.9452 27.8021 31.7869 28.6561 30.9329C29.51 30.0789 30.6683 29.5992 31.876 29.5992H43.2603C44.468 29.5992 45.6263 30.0789 46.4803 30.9329C47.3343 31.7869 47.814 32.9452 47.814 34.1529C47.814 35.3606 47.3343 36.5189 46.4803 37.3728C45.6263 38.2268 44.468 38.7066 43.2603 38.7066H31.876Z" fill="url(#paint0_linear_4002_890)"/>
<defs>
<linearGradient id="paint0_linear_4002_890" x1="26.1839" y1="6.83057" x2="26.1839" y2="50.0909" gradientUnits="userSpaceOnUse">
<stop stop-color="#F8F8F8" stop-opacity="0.9"/>
<stop offset="1" stop-color="#F8F8F8" stop-opacity="0.3"/>
</linearGradient>
</defs>
</svg>
