<svg width="48" height="48" viewBox="0 0 48 48" fill="none" xmlns="http://www.w3.org/2000/svg">
<path d="M21.0562 26.9784C21.0562 25.9642 21.5435 24.3513 25.3282 24.3513C26.4884 24.3513 27.2033 24.4354 28.1631 24.6506C27.8563 28.6234 25.912 29.1478 24.0221 29.1478C22.9881 29.1478 21.0562 28.6085 21.0562 26.9784Z" fill="url(#paint0_linear_4002_1164)"/>
<path d="M10.6173 43.7895H37.3826C39.0818 43.7895 40.7114 43.1145 41.9129 41.9129C43.1144 40.7114 43.7894 39.0818 43.7894 37.3826V10.6174C43.7894 8.91815 43.1144 7.28855 41.9129 6.08703C40.7114 4.88551 39.0818 4.21051 37.3826 4.21051L10.6173 4.21051C8.91809 4.21051 7.28849 4.88551 6.08697 6.08703C4.88545 7.28855 4.21045 8.91815 4.21045 10.6174L4.21045 37.3826C4.21045 39.0818 4.88545 40.7114 6.08697 41.9129C7.28849 43.1145 8.91809 43.7895 10.6173 43.7895ZM18.7211 18.83C20.1237 16.8263 21.974 16.0446 24.5342 16.0446C26.34 16.0446 27.8762 16.6531 28.9745 17.8034C30.0703 18.9561 30.6962 20.6036 30.8397 22.7087C31.4465 22.9627 32.0056 23.262 32.5168 23.6067C34.5749 24.9895 35.7079 27.0575 35.7079 29.4272C35.7079 34.4661 31.5768 38.8421 24.1013 38.8421C17.6821 38.8421 11.0131 35.1068 11.0131 23.9901C11.0131 12.9327 17.4719 9.15788 24.0816 9.15788C27.1341 9.15788 34.2954 9.60809 36.9868 18.501L34.4636 19.154C32.3808 12.8214 28.0147 11.8121 24.0148 11.8121C17.3977 11.8121 13.6574 15.8393 13.6574 24.4106C13.6574 32.0964 17.838 36.1779 24.1013 36.1779C29.254 36.1779 33.0957 33.5014 33.0957 29.5806C33.0957 26.9115 30.8545 25.6351 30.7382 25.6351C30.3004 27.9232 29.1279 31.7748 23.9777 31.7748C20.9771 31.7748 18.3871 29.7018 18.3871 26.9857C18.3871 23.107 22.068 21.7019 24.9746 21.7019C26.063 21.7019 27.374 21.7761 28.0592 21.9147C28.0592 20.7322 27.0599 18.7088 24.5318 18.7088C22.2782 18.7088 21.6623 19.4212 20.9449 20.2524L20.8856 20.3191C20.3859 19.9852 18.7211 18.83 18.7211 18.83Z" fill="url(#paint1_linear_4002_1164)"/>
<defs>
<linearGradient id="paint0_linear_4002_1164" x1="24.6084" y1="24.3513" x2="24.6084" y2="29.1478" gradientUnits="userSpaceOnUse">
<stop stop-color="#F8F8F8" stop-opacity="0.9"/>
<stop offset="1" stop-color="#F8F8F8" stop-opacity="0.3"/>
</linearGradient>
<linearGradient id="paint1_linear_4002_1164" x1="23.9999" y1="4.21051" x2="23.9999" y2="43.7895" gradientUnits="userSpaceOnUse">
<stop stop-color="#F8F8F8" stop-opacity="0.9"/>
<stop offset="1" stop-color="#F8F8F8" stop-opacity="0.3"/>
</linearGradient>
</defs>
</svg>
