<svg width="55" height="55" viewBox="0 0 55 55" fill="none" xmlns="http://www.w3.org/2000/svg">
<path d="M37.7959 13.2513C36.2395 11.4745 35.3818 9.19265 35.3825 6.83057H28.347V35.0636C28.2927 36.5915 27.6477 38.0386 26.5477 39.1004C25.4478 40.1621 23.9787 40.7556 22.4499 40.7558C19.2168 40.7558 16.5301 38.1146 16.5301 34.8359C16.5301 30.9197 20.3097 27.9826 24.2031 29.1893V21.9945C16.3479 20.9471 9.4718 27.0491 9.4718 34.8359C9.4718 42.4179 15.7559 47.814 22.4271 47.814C29.5765 47.814 35.3825 42.008 35.3825 34.8359V20.5145C38.2354 22.5633 41.6606 23.6626 45.173 23.6566V16.6211C45.173 16.6211 40.8925 16.826 37.7959 13.2513Z" fill="url(#paint0_linear_4002_882)"/>
<defs>
<linearGradient id="paint0_linear_4002_882" x1="27.3224" y1="6.83057" x2="27.3224" y2="47.814" gradientUnits="userSpaceOnUse">
<stop stop-color="#F8F8F8" stop-opacity="0.9"/>
<stop offset="1" stop-color="#F8F8F8" stop-opacity="0.3"/>
</linearGradient>
</defs>
</svg>
