<svg width="51" height="51" viewBox="0 0 51 51" fill="none" xmlns="http://www.w3.org/2000/svg">
<path fill-rule="evenodd" clip-rule="evenodd" d="M25.4612 8.48706C27.2754 8.48706 29.1362 8.53374 30.9397 8.61012L33.0699 8.71197L35.1089 8.83291L37.0185 8.96234L38.7626 9.09813C40.6556 9.24218 42.4371 10.0496 43.7933 11.3782C45.1494 12.7068 45.9932 14.4713 46.1761 16.361L46.261 17.2627L46.4201 19.1935C46.5686 21.1943 46.679 23.3755 46.679 25.4612C46.679 27.5469 46.5686 29.7281 46.4201 31.7289L46.261 33.6598L46.1761 34.5615C45.9931 36.4515 45.149 38.2163 43.7924 39.5449C42.4359 40.8735 40.6539 41.6808 38.7605 41.8243L37.0207 41.958L35.1111 42.0896L33.0699 42.2105L30.9397 42.3123C29.1146 42.3914 27.288 42.4324 25.4612 42.4354C23.6344 42.4324 21.8079 42.3914 19.9828 42.3123L17.8526 42.2105L15.8135 42.0896L13.904 41.958L12.1599 41.8243C10.2668 41.6803 8.48537 40.8729 7.12923 39.5443C5.77309 38.2157 4.92927 36.4512 4.74639 34.5615L4.66152 33.6598L4.50239 31.7289C4.34078 29.6435 4.25444 27.5529 4.24353 25.4612C4.24353 23.3755 4.35386 21.1943 4.50239 19.1935L4.66152 17.2627L4.74639 16.361C4.9292 14.4716 5.77272 12.7074 7.12842 11.3788C8.48413 10.0503 10.2651 9.24266 12.1577 9.09813L13.8997 8.96234L15.8093 8.83291L17.8505 8.71197L19.9807 8.61012C21.8065 8.53104 23.6337 8.49001 25.4612 8.48706ZM21.2177 20.3159V30.6065C21.2177 31.5868 22.2786 32.1979 23.1273 31.7099L32.0387 26.5646C32.2326 26.4529 32.3937 26.2922 32.5057 26.0985C32.6177 25.9048 32.6767 25.685 32.6767 25.4612C32.6767 25.2375 32.6177 25.0177 32.5057 24.824C32.3937 24.6303 32.2326 24.4695 32.0387 24.3579L23.1273 19.2147C22.9337 19.103 22.7141 19.0441 22.4906 19.0442C22.267 19.0442 22.0474 19.1031 21.8539 19.2149C21.6603 19.3268 21.4996 19.4876 21.388 19.6812C21.2763 19.8749 21.2176 20.0945 21.2177 20.3181V20.3159Z" fill="url(#paint0_linear_4002_846)"/>
<defs>
<linearGradient id="paint0_linear_4002_846" x1="25.4612" y1="8.48706" x2="25.4612" y2="42.4354" gradientUnits="userSpaceOnUse">
<stop stop-color="#F8F8F8" stop-opacity="0.9"/>
<stop offset="1" stop-color="#F8F8F8" stop-opacity="0.3"/>
</linearGradient>
</defs>
</svg>
